<svg xmlns="http://www.w3.org/2000/svg" viewBox="0 0 16 16">
  <path fill="currentColor" d="M8 1c-3.314 0-6 1.343-6 3v8c0 1.657 2.686 3 6 3s6-1.343 6-3V4c0-1.657-2.686-3-6-3zm0 2c2.21 0 4 .895 4 2s-1.79 2-4 2-4-.895-4-2 1.79-2 4-2zM4 6.5c.742.466 1.852.793 3 .95V9.5c-1.148-.157-2.258-.484-3-.95V6.5zm8 0v2.05c-.742.466-1.852.793-3 .95V7.45c1.148-.157 2.258-.484 3-.95zM4 10.5c.742.466 1.852.793 3 .95v2.05c-1.148-.157-2.258-.484-3-.95v-2.05zm8 0v2.05c-.742.466-1.852.793-3 .95v-2.05c1.148-.157 2.258-.484 3-.95z"/>
</svg>
















